# xmcd
#
# Track frame offsets:
#	150
#	20756
#	40832
#	42853
#	61369
#	77823
#	95837
#	102065
#	118310
#	133232
#	149825
#	165555
#	170627
#	187457
#
# Disc length: 2781 seconds
#
# Revision: 110144165
# Processed by: cddbd v1.5.1PL0 Copyright (c) Steve Scherf et al.
# Submitted via: EasyCDDAExtractor 8.0.2.1
#
DISCID=d80adb0e
DTITLE=Angie Martinez - Animal House
DYEAR=2002
DGENRE=Hip-Hop
TTITLE0=Animal House (Featuring Sacario)
TTITLE1=A New Day
TTITLE2=TRL (Skit)
TTITLE3=If I Could Go (Featuring Lil Mo and Sacario)
TTITLE4=Never
TTITLE5=Take You Home (Featuring Kelis)
TTITLE6=Been Around The World (Skit)
TTITLE7=We Can Get It On (Featuring Noreaga)
TTITLE8=What's That Sound (Featuring Missy Elliott)
TTITLE9=Fucked Up Situation (Featuring Tony Sunshine)
TTITLE10=Waitin' On (Featuring Petey Pablo)
TTITLE11=Lifestyles Of The Big And Famous (Skit)
TTITLE12=Live Big Remix (Featuring Sacario and Fat Joe)
TTITLE13=So Good (Featuring Keon Bryce)
EXTD=
EXTT0=
EXTT1=
EXTT2=
EXTT3=
EXTT4=
EXTT5=
EXTT6=
EXTT7=
EXTT8=
EXTT9=
EXTT10=
EXTT11=
EXTT12=
EXTT13=
PLAYORDER=
